<svg width="27" height="32" viewBox="0 0 27 32" fill="none" xmlns="http://www.w3.org/2000/svg">
<path d="M16.0312 24H3.375L3.37247 8.906L13.0199 16.822C13.161 16.9377 13.3285 16.9997 13.5 16.9997C13.6715 16.9997 13.839 16.9377 13.9801 16.822L23.625 8.91V18H25.3125V8C25.3118 7.46981 25.1338 6.96156 24.8175 6.58666C24.5012 6.21176 24.0723 6.00079 23.625 6H3.375C2.92758 6.00053 2.49862 6.21141 2.18225 6.58637C1.86588 6.96133 1.68795 7.46973 1.6875 8V24C1.68817 24.5302 1.86617 25.0384 2.1825 25.4133C2.49882 25.7882 2.92765 25.9992 3.375 26H16.0312V24ZM21.7679 8L13.5 14.784L5.23209 8H21.7679Z" fill="black"/>
<path d="M21.9375 28C23.8015 28 25.3125 26.2091 25.3125 24C25.3125 21.7909 23.8015 20 21.9375 20C20.0735 20 18.5625 21.7909 18.5625 24C18.5625 26.2091 20.0735 28 21.9375 28Z" fill="black"/>
</svg>
