<svg width="25" height="25" viewBox="0 0 25 25" fill="none" xmlns="http://www.w3.org/2000/svg">
<path d="M6.14288 8.25C6.14288 7.82989 6.19999 7.45356 6.28574 7.1453C6.37149 7.45356 6.4286 7.82989 6.4286 8.25C6.4286 8.67011 6.37149 9.04644 6.28574 9.3547C6.2 9.04644 6.14288 8.67011 6.14288 8.25Z" fill="black" stroke="black" stroke-width="4"/>
<mask id="path-2-inside-1_12_1116" fill="white">
<path fill-rule="evenodd" clip-rule="evenodd" d="M3.61143 17.3C3.46143 17.5637 3.42857 17.7612 3.42857 17.9087V22H2V17.9087C2 16.9237 2.26429 16.1275 2.59786 15.5387C2.92571 14.9625 3.34786 14.53 3.76714 14.2088C4.60143 13.5713 5.59143 13.25 6.28571 13.25C6.97929 13.25 7.97 13.5713 8.80429 14.2088C9.22357 14.53 9.64571 14.9625 9.97357 15.5387C10.3079 16.1275 10.5714 16.9237 10.5714 17.9087V22H9.14286V17.9087C9.14286 17.7612 9.10929 17.5637 8.96 17.3012C8.80429 17.0262 8.55714 16.7488 8.23214 16.5C7.57929 16 6.78357 15.75 6.28571 15.75C5.78786 15.75 4.99286 16 4.33929 16.5C4.01429 16.7475 3.76786 17.025 3.61143 17.3ZM15.04 17.3C14.89 17.5637 14.8571 17.7612 14.8571 17.9087V22H13.4286V17.9087C13.4286 16.9237 13.6929 16.1275 14.0264 15.5387C14.3543 14.9625 14.7764 14.53 15.1957 14.2088C16.03 13.5713 17.0207 13.25 17.7143 13.25C18.4079 13.25 19.3986 13.5713 20.2329 14.2088C20.6521 14.53 21.0743 14.9625 21.4021 15.5387C21.7364 16.1275 22 16.9237 22 17.9087V22H20.5714V17.9087C20.5714 17.7612 20.5379 17.5637 20.3886 17.3012C20.2329 17.0262 19.9857 16.7488 19.6607 16.5C19.0079 16 18.2121 15.75 17.7143 15.75C17.2164 15.75 16.4214 16 15.7679 16.5C15.4429 16.7475 15.1964 17.025 15.04 17.3Z"/>
</mask>
<path fill-rule="evenodd" clip-rule="evenodd" d="M3.61143 17.3C3.46143 17.5637 3.42857 17.7612 3.42857 17.9087V22H2V17.9087C2 16.9237 2.26429 16.1275 2.59786 15.5387C2.92571 14.9625 3.34786 14.53 3.76714 14.2088C4.60143 13.5713 5.59143 13.25 6.28571 13.25C6.97929 13.25 7.97 13.5713 8.80429 14.2088C9.22357 14.53 9.64571 14.9625 9.97357 15.5387C10.3079 16.1275 10.5714 16.9237 10.5714 17.9087V22H9.14286V17.9087C9.14286 17.7612 9.10929 17.5637 8.96 17.3012C8.80429 17.0262 8.55714 16.7488 8.23214 16.5C7.57929 16 6.78357 15.75 6.28571 15.75C5.78786 15.75 4.99286 16 4.33929 16.5C4.01429 16.7475 3.76786 17.025 3.61143 17.3ZM15.04 17.3C14.89 17.5637 14.8571 17.7612 14.8571 17.9087V22H13.4286V17.9087C13.4286 16.9237 13.6929 16.1275 14.0264 15.5387C14.3543 14.9625 14.7764 14.53 15.1957 14.2088C16.03 13.5713 17.0207 13.25 17.7143 13.25C18.4079 13.25 19.3986 13.5713 20.2329 14.2088C20.6521 14.53 21.0743 14.9625 21.4021 15.5387C21.7364 16.1275 22 16.9237 22 17.9087V22H20.5714V17.9087C20.5714 17.7612 20.5379 17.5637 20.3886 17.3012C20.2329 17.0262 19.9857 16.7488 19.6607 16.5C19.0079 16 18.2121 15.75 17.7143 15.75C17.2164 15.75 16.4214 16 15.7679 16.5C15.4429 16.7475 15.1964 17.025 15.04 17.3Z" fill="black"/>
<path d="M3.42857 22V26H7.42857V22H3.42857ZM2 22H-2V26H2V22ZM2.59786 15.5387L-0.878828 13.5607L-0.882367 13.5669L2.59786 15.5387ZM3.76714 14.2088L1.3385 11.0304L1.33438 11.0336L3.76714 14.2088ZM8.80429 14.2088L11.237 11.0336L11.2329 11.0304L8.80429 14.2088ZM9.97357 15.5387L13.452 13.5637L13.4503 13.5607L9.97357 15.5387ZM10.5714 22V26H14.5714V22H10.5714ZM9.14286 22H5.14286V26H9.14286V22ZM8.96 17.3012L5.47926 19.2722L5.48296 19.2787L8.96 17.3012ZM8.23214 16.5L5.80002 19.6757L5.80098 19.6764L8.23214 16.5ZM4.33929 16.5L6.76273 19.6823L6.76973 19.6769L4.33929 16.5ZM14.8571 22V26H18.8571V22H14.8571ZM13.4286 22H9.42857V26H13.4286V22ZM14.0264 15.5387L10.5497 13.5607L10.5462 13.5669L14.0264 15.5387ZM15.1957 14.2088L12.7671 11.0304L12.763 11.0336L15.1957 14.2088ZM20.2329 14.2088L22.6656 11.0336L22.6615 11.0304L20.2329 14.2088ZM21.4021 15.5387L24.8806 13.5637L24.8788 13.5607L21.4021 15.5387ZM22 22V26H26V22H22ZM20.5714 22H16.5714V26H20.5714V22ZM20.3886 17.3012L16.9078 19.2722L16.9115 19.2787L20.3886 17.3012ZM19.6607 16.5L17.2286 19.6757L17.2296 19.6764L19.6607 16.5ZM15.7679 16.5L18.1913 19.6823L18.1983 19.6769L15.7679 16.5ZM0.134407 15.3225C-0.350462 16.1751 -0.571429 17.0521 -0.571429 17.9087H7.42857C7.42857 18.1493 7.39967 18.4133 7.32784 18.6818C7.25818 18.9422 7.16537 19.1422 7.08845 19.2775L0.134407 15.3225ZM-0.571429 17.9087V22H7.42857V17.9087H-0.571429ZM3.42857 18H2V26H3.42857V18ZM6 22V17.9087H-2V22H6ZM6 17.9087C6 17.6589 6.06283 17.5375 6.07808 17.5106L-0.882367 13.5669C-1.53426 14.7175 -2 16.1886 -2 17.9087H6ZM6.07454 17.5168C6.0934 17.4836 6.12725 17.4396 6.1999 17.3839L1.33438 11.0336C0.568469 11.6204 -0.241974 12.4414 -0.878822 13.5607L6.07454 17.5168ZM6.19578 17.3871C6.2309 17.3602 6.27333 17.3325 6.32096 17.3067C6.36879 17.2808 6.41355 17.2613 6.44983 17.2481C6.48723 17.2344 6.50238 17.2322 6.4896 17.2348C6.48225 17.2362 6.46297 17.2397 6.4317 17.243C6.40089 17.2463 6.35179 17.25 6.28571 17.25V9.25C4.58555 9.25 2.76111 9.94338 1.3385 11.0304L6.19578 17.3871ZM6.28571 17.25C6.21941 17.25 6.17016 17.2462 6.13931 17.243C6.10799 17.2397 6.08871 17.2362 6.0814 17.2347C6.06872 17.2322 6.08401 17.2344 6.12157 17.2481C6.15802 17.2614 6.20288 17.281 6.25074 17.3069C6.2984 17.3327 6.34073 17.3604 6.37565 17.3871L11.2329 11.0304C9.81 9.94314 7.98482 9.25 6.28571 9.25V17.25ZM6.37152 17.3839C6.44418 17.4396 6.47803 17.4836 6.49689 17.5168L13.4503 13.5607C12.8134 12.4414 12.003 11.6204 11.237 11.0336L6.37152 17.3839ZM6.49516 17.5138C6.50812 17.5366 6.57143 17.6566 6.57143 17.9087H14.5714C14.5714 16.1909 14.1076 14.7184 13.452 13.5637L6.49516 17.5138ZM6.57143 17.9087V22H14.5714V17.9087H6.57143ZM10.5714 18H9.14286V26H10.5714V18ZM13.1429 22V17.9087H5.14286V22H13.1429ZM13.1429 17.9087C13.1429 17.0455 12.9178 16.1692 12.437 15.3238L5.48296 19.2787C5.40646 19.1442 5.31414 18.9454 5.24458 18.6867C5.17292 18.4201 5.14286 18.1549 5.14286 17.9087H13.1429ZM12.4407 15.3303C11.9723 14.5031 11.3319 13.8353 10.6633 13.3236L5.80098 19.6764C5.78371 19.6632 5.74469 19.6312 5.69203 19.5729C5.64068 19.5161 5.56213 19.4185 5.47926 19.2722L12.4407 15.3303ZM10.6643 13.3243C9.41918 12.3708 7.78745 11.75 6.28571 11.75V19.75C6.09108 19.75 5.96429 19.7274 5.91659 19.7178C5.86095 19.7066 5.83406 19.6968 5.83037 19.6954C5.82696 19.6942 5.8258 19.6936 5.8262 19.6938C5.82658 19.694 5.82695 19.6942 5.82686 19.6941C5.82677 19.6941 5.82486 19.693 5.82099 19.6906C5.81714 19.6881 5.81004 19.6833 5.80002 19.6757L10.6643 13.3243ZM6.28571 11.75C4.78289 11.75 3.15265 12.3715 1.90884 13.3231L6.76973 19.6769C6.76009 19.6843 6.75334 19.6888 6.74976 19.6911C6.74789 19.6923 6.74657 19.6931 6.7458 19.6936C6.74502 19.694 6.74463 19.6942 6.74459 19.6943C6.74455 19.6943 6.74469 19.6942 6.74498 19.6941C6.74526 19.6939 6.74551 19.6938 6.74565 19.6938C6.74614 19.6935 6.74503 19.6941 6.74164 19.6953C6.73798 19.6966 6.71101 19.7065 6.65521 19.7177C6.60733 19.7274 6.48041 19.75 6.28571 19.75V11.75ZM1.91585 13.3177C1.23682 13.8348 0.600204 14.5037 0.134572 15.3223L7.08828 19.2777C7.00798 19.4189 6.93141 19.5146 6.8791 19.5724C6.8256 19.6316 6.78431 19.6659 6.76272 19.6823L1.91585 13.3177ZM11.563 15.3225C11.0781 16.1751 10.8571 17.0521 10.8571 17.9087H18.8571C18.8571 18.1493 18.8282 18.4133 18.7564 18.6818C18.6868 18.9422 18.5939 19.1422 18.517 19.2775L11.563 15.3225ZM10.8571 17.9087V22H18.8571V17.9087H10.8571ZM14.8571 18H13.4286V26H14.8571V18ZM17.4286 22V17.9087H9.42857V22H17.4286ZM17.4286 17.9087C17.4286 17.6589 17.4914 17.5375 17.5067 17.5106L10.5462 13.5669C9.89431 14.7175 9.42857 16.1886 9.42857 17.9087H17.4286ZM17.5031 17.5168C17.522 17.4836 17.5558 17.4396 17.6285 17.3839L12.763 11.0336C11.997 11.6204 11.1866 12.4414 10.5497 13.5607L17.5031 17.5168ZM17.6244 17.3871C17.6593 17.3604 17.7016 17.3327 17.7493 17.3069C17.7971 17.281 17.842 17.2614 17.8784 17.2481C17.916 17.2344 17.9313 17.2322 17.9186 17.2347C17.9113 17.2362 17.892 17.2397 17.8607 17.243C17.8298 17.2462 17.7806 17.25 17.7143 17.25V9.25C16.0152 9.25 14.19 9.94314 12.7671 11.0304L17.6244 17.3871ZM17.7143 17.25C17.648 17.25 17.5987 17.2462 17.5679 17.243C17.5366 17.2397 17.5173 17.2362 17.51 17.2347C17.4973 17.2322 17.5126 17.2344 17.5501 17.2481C17.5866 17.2614 17.6315 17.281 17.6793 17.3069C17.727 17.3327 17.7693 17.3604 17.8042 17.3871L22.6615 11.0304C21.2386 9.94314 19.4134 9.25 17.7143 9.25V17.25ZM17.8001 17.3839C17.8727 17.4396 17.9066 17.4836 17.9255 17.5168L24.8788 13.5607C24.242 12.4414 23.4315 11.6204 22.6656 11.0336L17.8001 17.3839ZM17.9237 17.5138C17.9367 17.5366 18 17.6566 18 17.9087H26C26 16.1909 25.5362 14.7184 24.8806 13.5637L17.9237 17.5138ZM18 17.9087V22H26V17.9087H18ZM22 18H20.5714V26H22V18ZM24.5714 22V17.9087H16.5714V22H24.5714ZM24.5714 17.9087C24.5714 17.0455 24.3464 16.1692 23.8656 15.3238L16.9115 19.2787C16.835 19.1442 16.7427 18.9454 16.6732 18.6867C16.6015 18.4201 16.5714 18.1549 16.5714 17.9087H24.5714ZM23.8693 15.3303C23.4009 14.5031 22.7604 13.8353 22.0919 13.3236L17.2296 19.6764C17.2123 19.6632 17.1733 19.6312 17.1206 19.5729C17.0693 19.5161 16.9907 19.4185 16.9078 19.2722L23.8693 15.3303ZM22.0928 13.3243C20.8478 12.3708 19.216 11.75 17.7143 11.75V19.75C17.5197 19.75 17.3929 19.7274 17.3452 19.7178C17.2895 19.7066 17.2626 19.6968 17.2589 19.6954C17.2555 19.6942 17.2544 19.6936 17.2548 19.6938C17.2551 19.694 17.2555 19.6942 17.2554 19.6941C17.2553 19.6941 17.2534 19.693 17.2496 19.6906C17.2457 19.6881 17.2386 19.6833 17.2286 19.6757L22.0928 13.3243ZM17.7143 11.75C16.2115 11.75 14.5812 12.3715 13.3374 13.3231L18.1983 19.6769C18.1887 19.6843 18.1819 19.6888 18.1783 19.6911C18.1765 19.6923 18.1751 19.6931 18.1744 19.6936C18.1736 19.694 18.1732 19.6942 18.1732 19.6943C18.1731 19.6943 18.1733 19.6942 18.1735 19.6941C18.1738 19.6939 18.1741 19.6938 18.1742 19.6938C18.1747 19.6935 18.1736 19.6941 18.1702 19.6953C18.1666 19.6966 18.1396 19.7065 18.0838 19.7177C18.0359 19.7274 17.909 19.75 17.7143 19.75V11.75ZM13.3444 13.3177C12.6654 13.8348 12.0288 14.5037 11.5631 15.3223L18.5169 19.2777C18.4366 19.4189 18.36 19.5146 18.3077 19.5724C18.2542 19.6316 18.2129 19.6659 18.1913 19.6823L13.3444 13.3177Z" fill="black" mask="url(#path-2-inside-1_12_1116)"/>
<path d="M17.8571 8.25C17.8571 8.67011 17.8 9.04643 17.7143 9.35469C17.6285 9.04644 17.5714 8.67011 17.5714 8.25C17.5714 7.82989 17.6285 7.45356 17.7143 7.1453C17.8 7.45356 17.8571 7.82989 17.8571 8.25ZM12.1428 5.75C12.1428 6.17011 12.0857 6.54644 12 6.8547C11.9142 6.54644 11.8571 6.17011 11.8571 5.75C11.8571 5.32989 11.9142 4.95356 12 4.6453C12.0857 4.95356 12.1428 5.32989 12.1428 5.75Z" fill="black" stroke="black" stroke-width="4"/>
<mask id="path-5-inside-2_12_1116" fill="white">
<path fill-rule="evenodd" clip-rule="evenodd" d="M11.0693 14.4937C10.8671 14.5287 10.7978 14.6087 10.7471 14.7075L9.6814 13.0425C10.0564 12.3075 10.5243 12.075 10.93 12.005C11.1757 11.9637 11.48 11.9787 11.73 11.99C11.8314 11.995 11.9243 12 12 12C12.0757 12 12.1685 11.995 12.2707 11.99C12.52 11.9775 12.8243 11.965 13.0693 12.0062C13.4764 12.075 13.9435 12.3075 14.3185 13.0425L13.2528 14.7075C13.2028 14.6087 13.1328 14.5287 12.9307 14.495C12.7991 14.4766 12.6669 14.4716 12.535 14.48L12.3907 14.4862C12.2693 14.4925 12.1314 14.5 12 14.5C11.8685 14.5 11.7307 14.4925 11.6093 14.4875L11.465 14.48C11.333 14.4711 11.2009 14.4757 11.0693 14.4937Z"/>
</mask>
<path fill-rule="evenodd" clip-rule="evenodd" d="M11.0693 14.4937C10.8671 14.5287 10.7978 14.6087 10.7471 14.7075L9.6814 13.0425C10.0564 12.3075 10.5243 12.075 10.93 12.005C11.1757 11.9637 11.48 11.9787 11.73 11.99C11.8314 11.995 11.9243 12 12 12C12.0757 12 12.1685 11.995 12.2707 11.99C12.52 11.9775 12.8243 11.965 13.0693 12.0062C13.4764 12.075 13.9435 12.3075 14.3185 13.0425L13.2528 14.7075C13.2028 14.6087 13.1328 14.5287 12.9307 14.495C12.7991 14.4766 12.6669 14.4716 12.535 14.48L12.3907 14.4862C12.2693 14.4925 12.1314 14.5 12 14.5C11.8685 14.5 11.7307 14.4925 11.6093 14.4875L11.465 14.48C11.333 14.4711 11.2009 14.4757 11.0693 14.4937Z" fill="black"/>
<path d="M10.7471 14.7075L7.37813 16.8638L11.1278 22.7221L14.3053 16.5348L10.7471 14.7075ZM9.6814 13.0425L6.11835 11.2246L5.07612 13.2673L6.31242 15.1988L9.6814 13.0425ZM10.93 12.005L10.2677 8.06017L10.2588 8.06167L10.2499 8.06321L10.93 12.005ZM11.73 11.99L11.9269 7.99482L11.9183 7.9944L11.9098 7.99402L11.73 11.99ZM12.2707 11.99L12.4663 15.9852L12.471 15.985L12.2707 11.99ZM13.0693 12.0062L13.7353 8.06205L13.7334 8.06174L13.0693 12.0062ZM14.3185 13.0425L17.6875 15.1988L18.9238 13.2673L17.8816 11.2246L14.3185 13.0425ZM13.2528 14.7075L9.6842 16.5144L12.8471 22.7612L16.6218 16.8638L13.2528 14.7075ZM12.9307 14.495L13.5894 10.5496L13.537 10.5408L13.4844 10.5335L12.9307 14.495ZM12.535 14.48L12.7081 18.4762L12.7487 18.4745L12.7893 18.4719L12.535 14.48ZM12.3907 14.4862L12.2175 10.49L12.2013 10.4907L12.1851 10.4915L12.3907 14.4862ZM11.6093 14.4875L11.4016 18.4821L11.4231 18.4832L11.4447 18.4841L11.6093 14.4875ZM11.465 14.48L11.1981 18.4711L11.2277 18.473L11.2573 18.4746L11.465 14.48ZM10.3868 10.5524C9.86446 10.6428 9.1474 10.8544 8.45047 11.3774C7.73044 11.9177 7.36015 12.5467 7.18891 12.8801L14.3053 16.5348C14.1848 16.7695 13.8745 17.3091 13.2523 17.776C12.6532 18.2256 12.0719 18.3796 11.7517 18.4351L10.3868 10.5524ZM14.1161 12.5511L13.0504 10.8861L6.31242 15.1988L7.37813 16.8638L14.1161 12.5511ZM13.2444 14.8604C13.1993 14.9488 13.0355 15.2219 12.6733 15.4899C12.3013 15.7652 11.9094 15.8951 11.6101 15.9467L10.2499 8.06321C8.59009 8.34958 7.06046 9.37805 6.11835 11.2246L13.2444 14.8604ZM11.5922 15.9498C11.5376 15.9589 11.492 15.9648 11.4571 15.9686C11.4221 15.9724 11.3943 15.9745 11.3749 15.9757C11.3554 15.977 11.3417 15.9774 11.3347 15.9776C11.3276 15.9778 11.3252 15.9778 11.3284 15.9778C11.336 15.9778 11.3559 15.978 11.3953 15.9794C11.4144 15.98 11.4361 15.9809 11.4622 15.982C11.4896 15.9832 11.5155 15.9844 11.5501 15.9859L11.9098 7.99402C11.796 7.98889 11.0205 7.9338 10.2677 8.06017L11.5922 15.9498ZM11.533 15.9851C11.5811 15.9875 11.7997 16 12 16V7.99997C12.0239 7.99997 12.0398 8.00035 12.0445 8.00047C12.0495 8.0006 12.0488 8.00063 12.0398 8.00026C12.0308 7.99989 12.018 7.99931 11.9981 7.99834C11.9884 7.99787 11.978 7.99736 11.9659 7.99676C11.9545 7.99619 11.9405 7.99549 11.9269 7.99482L11.533 15.9851ZM12 16C12.1997 16 12.419 15.9875 12.4663 15.9852L12.0751 7.99476C12.0613 7.99543 12.0473 7.99612 12.0356 7.9967C12.0233 7.99731 12.0128 7.99783 12.0029 7.9983C11.9827 7.99928 11.9697 7.99987 11.9605 8.00025C11.9514 8.00062 11.9506 8.0006 11.9555 8.00047C11.9601 8.00035 11.976 7.99997 12 7.99997V16ZM12.471 15.985C12.5279 15.9821 12.5676 15.9803 12.6017 15.9791C12.6352 15.978 12.6524 15.9779 12.658 15.9779C12.6643 15.9779 12.647 15.9781 12.6116 15.9758C12.5931 15.9745 12.5666 15.9724 12.5334 15.9687C12.5003 15.9651 12.457 15.9594 12.4051 15.9507L13.7334 8.06174C12.9857 7.93585 12.2402 7.98647 12.0704 7.99499L12.471 15.985ZM12.4032 15.9504C12.0991 15.899 11.7033 15.7683 11.3283 15.4911C10.9639 15.2218 10.7999 14.9474 10.7555 14.8604L17.8816 11.2246C16.9408 9.38061 15.4099 8.34484 13.7353 8.06206L12.4032 15.9504ZM10.9496 10.8861L9.88384 12.5511L16.6218 16.8638L17.6875 15.1988L10.9496 10.8861ZM16.8215 12.9006C16.6442 12.5505 16.2689 11.9139 15.5404 11.3705C14.8372 10.846 14.1143 10.6372 13.5894 10.5496L12.272 18.4404C11.9492 18.3865 11.3624 18.2345 10.7572 17.7831C10.1268 17.3129 9.81143 16.7657 9.6842 16.5144L16.8215 12.9006ZM13.4844 10.5335C13.0866 10.4779 12.6837 10.4624 12.2807 10.4881L12.7893 18.4719C12.6501 18.4807 12.5115 18.4753 12.377 18.4565L13.4844 10.5335ZM12.3618 10.4837L12.2175 10.49L12.5638 18.4825L12.7081 18.4762L12.3618 10.4837ZM12.1851 10.4915C12.1148 10.4951 12.0766 10.4971 12.0384 10.4987C12.0027 10.5001 11.9931 10.5 12 10.5V18.5C12.2554 18.5 12.5051 18.4856 12.5963 18.4809L12.1851 10.4915ZM12 10.5C12.006 10.5 11.9949 10.5001 11.9521 10.4985C11.9317 10.4977 11.9089 10.4967 11.8784 10.4954C11.8516 10.4942 11.8113 10.4924 11.7738 10.4909L11.4447 18.4841C11.4905 18.486 11.7602 18.5 12 18.5V10.5ZM11.8169 10.4929L11.6726 10.4854L11.2573 18.4746L11.4016 18.4821L11.8169 10.4929ZM11.7318 10.4889C11.3289 10.4619 10.926 10.4761 10.5279 10.5305L11.6106 18.4569C11.4758 18.4753 11.3371 18.4804 11.1981 18.4711L11.7318 10.4889Z" fill="black" mask="url(#path-5-inside-2_12_1116)"/>
</svg>
