<svg width="24" height="24" viewBox="0 0 24 24" fill="none" xmlns="http://www.w3.org/2000/svg">
<g clip-path="url(#clip0_12_1124)">
<path d="M22.056 8.44699C21.1629 7.93209 20.1021 7.79231 19.1062 8.05831C18.1102 8.32431 17.2604 8.97438 16.743 9.86599L12.854 16.586C12.5993 17.0264 12.4339 17.5127 12.3672 18.0171C12.3005 18.5215 12.3338 19.0341 12.4652 19.5256C12.5966 20.0171 12.8235 20.4779 13.133 20.8817C13.4425 21.2855 13.8285 21.6244 14.269 21.879L14.279 21.884C15.1721 22.3985 16.2327 22.5379 17.2284 22.2718C18.2242 22.0056 19.0737 21.3555 19.591 20.464L23.48 13.746C23.7346 13.3054 23.9 12.819 23.9666 12.3145C24.0333 11.81 23.9999 11.2973 23.8684 10.8057C23.7369 10.3141 23.5099 9.85325 23.2003 9.4494C22.8907 9.04554 22.5046 8.70662 22.064 8.45199L22.056 8.44699ZM7.35597 20.615C6.27597 22.503 3.84197 23.198 1.97197 22.108C0.101971 21.018 -0.561029 18.653 0.518971 16.765C1.59897 14.877 4.01297 14.179 5.88397 15.269C7.75397 16.359 8.43797 18.726 7.35797 20.613L7.35597 20.615ZM11.489 1.38499C10.8003 1.43127 10.1358 1.65789 9.56241 2.04211C8.98897 2.42633 8.52669 2.95464 8.22197 3.57399L4.55197 9.85299C4.47011 9.97825 4.39435 10.1074 4.32497 10.24L1.57897 14.977C2.92397 14.117 4.66897 13.984 6.12897 14.834C6.83232 15.2411 7.41095 15.8328 7.80225 16.545C8.19354 17.2573 8.3826 18.063 8.34897 18.875L11.119 14.112C11.201 13.988 11.276 13.86 11.343 13.727L15.013 7.44599C15.3167 7.00458 15.5253 6.50476 15.6253 5.97834C15.7253 5.45193 15.7146 4.91045 15.594 4.38839C15.4733 3.86632 15.2452 3.3751 14.9243 2.946C14.6034 2.51689 14.1966 2.1593 13.73 1.89599C13.0503 1.50793 12.2707 1.3301 11.49 1.38499H11.489Z" fill="black"/>
</g>
<defs>
<clipPath id="clip0_12_1124">
<rect width="24" height="24" fill="white"/>
</clipPath>
</defs>
</svg>
