<svg width="25" height="25" viewBox="0 0 25 25" fill="none" xmlns="http://www.w3.org/2000/svg">
<g clip-path="url(#clip0_12_1288)">
<path d="M14.9269 16.7168C13.1681 18.5864 10.0251 17.8442 9.28292 15.384C8.54113 12.9249 10.7493 10.5762 13.2489 11.164C16.0886 8.73525 20.5 4.97788 23.0552 2.89697C23.9463 2.17089 24.7099 2.99077 24.0157 3.85751C21.9896 6.38925 18.196 10.8329 15.7458 13.6826C15.9818 14.7081 15.7468 15.8453 14.927 16.7168H14.9269ZM21.1304 12.4986C21.1304 11.7619 20.3274 11.299 19.6885 11.6673C19.0496 12.0357 19.0496 12.9616 19.6885 13.3299C20.3274 13.6983 21.1304 13.2353 21.1304 12.4986ZM6.72233 8.65649C6.72233 7.91977 5.91935 7.45683 5.28043 7.82519C4.64152 8.19355 4.64152 9.11938 5.28043 9.48779C5.91935 9.8562 6.72233 9.39316 6.72233 8.65649ZM5.76183 12.4986C5.76183 11.7619 4.95885 11.299 4.31993 11.6673C3.68097 12.0357 3.68097 12.9616 4.31993 13.3299C4.9589 13.6983 5.76183 13.2353 5.76183 12.4986V12.4986ZM9.60397 5.77485C9.60397 5.03818 8.80099 4.57524 8.16207 4.94355C7.52316 5.31191 7.52316 6.23779 8.16207 6.60615C8.80099 6.97446 9.60397 6.51152 9.60397 5.77485ZM17.2882 5.77485C17.2882 5.03818 16.4853 4.57524 15.8464 4.94355C15.2074 5.31191 15.2074 6.23779 15.8464 6.60615C16.4853 6.97446 17.2882 6.51152 17.2882 5.77485ZM13.4461 4.8143C13.4461 4.07763 12.6431 3.61469 12.0042 3.98305C11.3653 4.35141 11.3653 5.27724 12.0042 5.6456C12.6431 6.01396 13.4461 5.55102 13.4461 4.8143ZM21.7356 9.94306C22.8695 14.1401 21.1246 18.9658 16.7188 21.1265C10.1046 24.3704 2.41251 19.1994 2.90631 11.841C3.39987 4.48359 11.7106 0.40688 17.8308 4.51894L20.218 2.69428C12.6992 -3.25401 1.5152 1.19394 0.135217 10.6814C-1.24486 20.1689 8.20485 27.6447 17.1038 24.1056C24.0855 21.3289 26.6568 13.3913 23.8098 7.22739L21.7356 9.94306H21.7356Z" fill="white"/>
</g>
<defs>
<clipPath id="clip0_12_1288">
<rect width="25" height="25" fill="white"/>
</clipPath>
</defs>
</svg>
