<svg width="25" height="25" viewBox="0 0 25 25" fill="none" xmlns="http://www.w3.org/2000/svg">
<path d="M21.0938 12.6465H12.3535V3.90626C12.3535 3.79884 12.2656 3.71095 12.1582 3.71095H11.5235C10.241 3.70885 8.97075 3.96035 7.78584 4.45099C6.60093 4.94163 5.52473 5.66172 4.61916 6.56983C3.72733 7.4589 3.01674 8.51277 2.52687 9.67286C2.01712 10.8761 1.75554 12.1698 1.75783 13.4766C1.75573 14.759 2.00723 16.0293 2.49787 17.2142C2.98851 18.3991 3.7086 19.4753 4.61671 20.3809C5.51271 21.2769 6.55763 21.9824 7.71974 22.4732C8.92296 22.9829 10.2167 23.2445 11.5235 23.2422C12.8059 23.2443 14.0762 22.9928 15.2611 22.5022C16.446 22.0115 17.5222 21.2914 18.4277 20.3833C19.3237 19.4873 20.0293 18.4424 20.52 17.2803C21.0298 16.0771 21.2914 14.7833 21.2891 13.4766V12.8418C21.2891 12.7344 21.2012 12.6465 21.0938 12.6465ZM17.229 19.2334C16.473 19.9835 15.5765 20.5771 14.5907 20.9801C13.6049 21.3831 12.5493 21.5877 11.4844 21.582C9.33351 21.5723 7.31203 20.73 5.79103 19.209C4.26027 17.6782 3.41798 15.6421 3.41798 13.4766C3.41798 11.311 4.26027 9.27491 5.79103 7.74415C7.12404 6.41114 8.84035 5.59815 10.6934 5.41261V14.3067H19.5874C19.3994 16.1694 18.5791 17.8955 17.229 19.2334ZM23.2422 11.2891L23.1787 10.6006C22.9712 8.35206 21.9727 6.23048 20.3662 4.62892C18.7587 3.02441 16.6414 2.03142 14.3799 1.8213L13.689 1.75782C13.5742 1.74806 13.4766 1.83595 13.4766 1.95069V11.3281C13.4766 11.4356 13.5645 11.5234 13.6719 11.5234L23.0469 11.499C23.1616 11.499 23.252 11.4014 23.2422 11.2891ZM15.1319 9.86817V3.60352C16.6698 3.92542 18.0811 4.68706 19.1944 5.79591C20.3101 6.90919 21.0742 8.3252 21.3916 9.85108L15.1319 9.86817Z" fill="black"/>
</svg>
